# File created by Blade
# Date/Time:  Tue Sep 30 19:12:16 2014
#---------------------------------------------------------
:version 1.10
:name HOM
:units
  mass 1.0
  length 1.000000
  angle deg
:documentation
     Acclaim Skeleton File
:root
   axis xyz
   order TX TY TZ RX RY RZ
   position 0.000000 0.000000 0.000000
   orientation 0 0 0
:bonedata
   begin
      id 1
      name Spine_dum
      direction 0.000000 1.000000 0.000000
      length 7.508948
      axis 0.0 0.0 0.0 xyz
   end
   begin
      id 2
      name LeftUpLeg_dum
      direction 1.000000 0.000000 0.000000
      length 3.000560
      axis 0.0 0.0 0.0 xyz
   end
   begin
      id 3
      name RightUpLeg_dum
      direction -1.000000 0.000000 0.000000
      length 3.000560
      axis 0.0 0.0 0.0 xyz
   end
   begin
      id 4
      name Spine
      direction 0.000000 1.000000 0.000000
      length 0.000000
      axis 0.0 0.0 0.0 xyz
      dof rx ry rz
   end
   begin
      id 5
      name Spine_dum1
      direction 0.000000 1.000000 0.000000
      length 13.861154
      axis 0.0 0.0 0.0 xyz
   end
   begin
      id 6
      name Spine_dum2
      direction 0.000000 1.000000 0.000000
      length 8.204781
      axis 0.0 0.0 0.0 xyz
   end
   begin
      id 7
      name Spine_dum3
      direction 0.000000 1.000000 0.000000
      length 8.204781
      axis 0.0 0.0 0.0 xyz
   end
   begin
      id 8
      name Head
      direction 0.000000 1.000000 0.000000
      length 4.527550
      axis 0.0 0.0 0.0 xyz
      dof rx ry rz
   end
   begin
      id 9
      name LeftShoulder
      direction 1.000000 0.000000 0.000000
      length 6.635956
      axis 0.0 0.0 -90.0 xyz
      dof rx ry rz
   end
   begin
      id 10
      name LeftArm
      direction 1.000000 0.000000 0.000000
      length 10.274218
      axis 0.0 0.0 -90.0 xyz
      dof rx ry rz
   end
   begin
      id 11
      name LeftForeArm
      direction 1.000000 0.000000 0.000000
      length 8.522147
      axis 0.0 0.0 -90.0 xyz
      dof ry rz rx
   end
   begin
      id 12
      name LeftHand
      direction 0.000000 0.000000 0.000000
      length 0.000000
      axis 0.0 0.0 -90.0 xyz
      dof rx ry rz
   end
   begin
      id 13
      name LeftHand_dum1
      direction 0.000000 0.000000 0.000000
      length 0.000000
      axis 0.0 0.0 -90.0 xyz
   end
   begin
      id 14
      name LeftHand_dum2
      direction 1.000000 0.000000 0.000000
      length 3.937000
      axis 0.0 0.0 -90.0 xyz
   end
   begin
      id 15
      name LeftHandThumb1
      direction 0.000000 0.000000 1.000000
      length 3.937000
      axis 0.0 0.0 -90.0 xyz
      dof rx rz ry
   end
   begin
      id 16
      name RightShoulder
      direction -1.000000 0.000000 0.000000
      length 6.635956
      axis 0.0 0.0 90.0 xyz
      dof rx ry rz
   end
   begin
      id 17
      name RightArm
      direction -1.000000 0.000000 0.000000
      length 10.274218
      axis 0.0 0.0 90.0 xyz
      dof rx ry rz
   end
   begin
      id 18
      name RightForeArm
      direction -1.000000 0.000000 0.000000
      length 8.522147
      axis 0.0 0.0 90.0 xyz
      dof ry rz rx
   end
   begin
      id 19
      name RightHand
      direction 0.000000 0.000000 0.000000
      length 0.000000
      axis 0.0 0.0 90.0 xyz
      dof rx ry rz
   end
   begin
      id 20
      name RightHand_dum1
      direction 0.000000 0.000000 0.000000
      length 0.000000
      axis 0.0 0.0 90.0 xyz
   end
   begin
      id 21
      name RightHand_dum2
      direction -1.000000 0.000000 0.000000
      length 3.937000
      axis 0.0 0.0 90.0 xyz
   end
   begin
      id 22
      name RightHandThumb1
      direction 0.000000 0.000000 1.000000
      length 3.937000
      axis 0.0 0.0 90.0 xyz
      dof rx rz ry
   end
   begin
      id 23
      name LeftUpLeg
      direction 0.000000 -1.000000 0.000000
      length 16.490845
      axis 0.0 0.0 0.0 xyz
      dof rx ry rz
   end
   begin
      id 24
      name LeftLeg
      direction 0.000000 -1.000000 0.000000
      length 14.556576
      axis 0.0 0.0 0.0 xyz
      dof rx ry rz
   end
   begin
      id 25
      name LeftFoot
      direction 0.000000 -0.258819 0.965926
      length 4.831116
      axis 15.0 0.0 0.0 xyz
      dof rx ry rz
   end
   begin
      id 26
      name LeftToeBase
      direction 0.000000 0.000000 1.000000
      length 2.952750
      axis 0.0 0.0 0.0 xyz
      dof rx ry rz
   end
   begin
      id 27
      name RightUpLeg
      direction 0.000000 -1.000000 0.000000
      length 16.490845
      axis 0.0 0.0 0.0 xyz
      dof rx ry rz
   end
   begin
      id 28
      name RightLeg
      direction 0.000000 -1.000000 0.000000
      length 14.556576
      axis 0.0 0.0 0.0 xyz
      dof rx ry rz
   end
   begin
      id 29
      name RightFoot
      direction 0.000000 -0.258819 0.965926
      length 4.831116
      axis 15.0 0.0 0.0 xyz
      dof rx ry rz
   end
   begin
      id 30
      name RightToeBase
      direction 0.000000 0.000000 1.000000
      length 2.952750
      axis 0.0 0.0 0.0 xyz
      dof rx ry rz
   end
:hierarchy
   begin
      root Spine_dum LeftUpLeg_dum RightUpLeg_dum
      Spine_dum Spine
      LeftUpLeg_dum LeftUpLeg
      RightUpLeg_dum RightUpLeg
      Spine Spine_dum1 Spine_dum2 Spine_dum3
      Spine_dum1 Head
      Spine_dum2 LeftShoulder
      Spine_dum3 RightShoulder
      LeftShoulder LeftArm
      LeftArm LeftForeArm
      LeftForeArm LeftHand
      LeftHand LeftHand_dum1 LeftHand_dum2
      LeftHand_dum1 LeftHandThumb1
      RightShoulder RightArm
      RightArm RightForeArm
      RightForeArm RightHand
      RightHand RightHand_dum1 RightHand_dum2
      RightHand_dum1 RightHandThumb1
      LeftUpLeg LeftLeg
      LeftLeg LeftFoot
      LeftFoot LeftToeBase
      RightUpLeg RightLeg
      RightLeg RightFoot
      RightFoot RightToeBase
   end

# File created by Blade
# Date/Time:  Thu Sep 25 17:33:50 2014
# Frame Rate: 120.000 fps
#------------------------------------------------------
:FULLY-SPECIFIED
:DEGREES
270
root -6.005010 33.219969 -0.644610 -0.539208 -23.625995 17.993790
Spine 1.468468 5.911478 -1.087995
Head -17.332332 18.508742 -3.226475
LeftShoulder -2.057843 12.323445 16.840824
LeftArm 74.221302 38.694336 -49.317962
LeftForeArm 39.787892 0.000000 114.501220
LeftHand -35.154587 -0.000000 53.293811
LeftHandThumb1 -26.253704 0.000000 33.147579
RightShoulder -11.905253 14.375335 -25.586248
RightArm 16.460745 -34.816103 76.554516
RightForeArm -30.240518 -0.000000 128.922085
RightHand 3.030659 0.000000 -46.812170
RightHandThumb1 -24.326973 -0.000000 -32.862282
LeftUpLeg -57.320601 11.948646 -14.822085
LeftLeg 93.183233 -0.000000 -0.000000
LeftFoot 11.422676 16.790095 -30.043510
LeftToeBase 12.097011 -0.000000 -0.000000
RightUpLeg -18.138744 -3.921416 -12.738346
RightLeg 28.509344 -0.000000 -0.000000
RightFoot -17.055585 0.896701 -5.837800
RightToeBase -2.283151 -0.000000 0.000000
271
root -6.041346 33.198208 -0.602463 -0.390878 -23.662796 17.712203
Spine 1.342446 5.987134 -1.088534
Head -17.342377 18.515106 -2.957029
LeftShoulder -2.108840 12.370385 16.942844
LeftArm 74.227156 38.702364 -49.241074
LeftForeArm 39.593823 -0.000000 114.457045
LeftHand -35.090726 -0.000000 52.963781
LeftHandThumb1 -26.253704 0.000000 33.147579
RightShoulder -11.958438 14.284444 -25.471468
RightArm 16.447541 -34.875963 76.562991
RightForeArm -30.160281 -0.000000 128.925643
RightHand 2.895178 -0.000000 -46.685680
RightHandThumb1 -24.326973 -0.000000 -32.862282
LeftUpLeg -55.454942 11.987422 -14.668550
LeftLeg 91.578963 -0.000000 -0.000000
LeftFoot 8.980792 16.495026 -30.948023
LeftToeBase 11.896990 -0.000000 -0.000000
RightUpLeg -18.105182 -3.562013 -12.467799
RightLeg 28.569372 -0.000000 -0.000000
RightFoot -17.043732 0.524769 -6.051818
RightToeBase -2.676545 -0.000000 0.000000
272
root -6.081271 33.175088 -0.563780 -0.215851 -23.634408 17.374361
Spine 1.207477 5.969320 -1.021486
Head -17.289458 18.638073 -2.713778
LeftShoulder -2.176846 12.331657 17.014628
LeftArm 74.206626 38.796301 -49.194283
LeftForeArm 39.805890 -0.000000 114.296138
LeftHand -35.193484 -0.000000 53.124313
LeftHandThumb1 -26.253704 0.000000 33.147579
RightShoulder -11.971662 14.253064 -25.408469
RightArm 16.335249 -34.830656 76.706605
RightForeArm -30.038856 -0.000000 128.821162
RightHand 3.343061 -0.000000 -46.346104
RightHandThumb1 -24.326973 -0.000000 -32.862282
LeftUpLeg -53.627627 11.952800 -14.372980
LeftLeg 89.887162 -0.000000 -0.000000
LeftFoot 6.720113 16.173258 -32.193124
LeftToeBase 10.839726 -0.000000 -0.000000
RightUpLeg -18.031617 -3.251141 -12.135499
RightLeg 28.568360 -0.000000 -0.000000
RightFoot -17.024754 0.169540 -6.399736
RightToeBase -2.965261 -0.000000 0.000000
273
root -6.128348 33.150428 -0.524939 -0.056574 -23.613512 16.987230
Spine 1.094310 5.956431 -0.910045
Head -17.233930 18.688217 -2.507840
LeftShoulder -2.165881 12.422357 17.060983
LeftArm 74.036664 38.707347 -49.260647
LeftForeArm 39.124839 -0.000000 114.363602
LeftHand -34.819620 -0.000000 52.493150
LeftHandThumb1 -26.253704 0.000000 33.147579
RightShoulder -11.955463 14.244808 -25.315743
RightArm 16.179309 -34.816064 76.842210
RightForeArm -29.909980 0.000000 128.791684
RightHand 3.455494 -0.000000 -45.708835
RightHandThumb1 -24.326973 -0.000000 -32.862282
LeftUpLeg -51.799689 12.004523 -14.046543
LeftLeg 88.173114 -0.000000 -0.000000
LeftFoot 4.637106 15.948089 -33.360751
LeftToeBase 9.583530 -0.000000 -0.000000
RightUpLeg -17.897214 -2.917858 -11.737127
RightLeg 28.513309 -0.000000 -0.000000
RightFoot -17.061701 -0.049592 -6.644423
RightToeBase -2.833219 -0.000000 0.000000
274
root -6.178454 33.126115 -0.484323 0.158800 -23.515861 16.623270
Spine 0.863843 5.751556 -0.861277
Head -17.104609 18.882253 -2.271483
LeftShoulder -2.357747 12.714006 17.058861
LeftArm 74.129486 38.611107 -49.160119
LeftForeArm 39.134254 -0.000000 114.299889
LeftHand -34.905467 -0.000000 52.131618
LeftHandThumb1 -26.253704 0.000000 33.147579
RightShoulder -11.922470 14.150165 -25.182932
RightArm 16.275266 -35.055827 76.847809
RightForeArm -30.202464 -0.000000 128.721149
RightHand 2.775190 -0.000000 -46.082310
RightHandThumb1 -24.326973 -0.000000 -32.862282
LeftUpLeg -50.031885 12.015795 -13.752039
LeftLeg 86.368530 -0.000000 -0.000000
LeftFoot 2.694234 15.781794 -34.966169
LeftToeBase 7.459758 -0.000000 -0.000000
RightUpLeg -17.774195 -2.687962 -11.366911
RightLeg 28.442223 -0.000000 -0.000000
RightFoot -17.134795 -0.414179 -6.743759
RightToeBase -3.055197 -0.000000 0.000000
275
root -6.227676 33.101512 -0.446977 0.369734 -23.388083 16.175449
Spine 0.705431 5.576738 -0.690890
Head -16.997296 19.094462 -2.087932
LeftShoulder -2.424765 12.754169 17.091357
LeftArm 73.962314 38.648334 -49.264686
LeftForeArm 39.135622 -0.000000 114.217567
LeftHand -34.790949 -0.000000 52.143139
LeftHandThumb1 -26.253704 0.000000 33.147579
RightShoulder -11.897635 14.194458 -25.129425
RightArm 16.117815 -35.109192 77.014808
RightForeArm -30.266441 -0.000000 128.589406
RightHand 2.897698 -0.000000 -45.973199
RightHandThumb1 -24.326973 -0.000000 -32.862282
LeftUpLeg -48.268051 12.047228 -13.382881
LeftLeg 84.521954 -0.000000 -0.000000
LeftFoot 0.760968 15.742260 -35.822052
LeftToeBase 6.664993 -0.000000 -0.000000
RightUpLeg -17.587924 -2.497855 -10.917362
RightLeg 28.297153 -0.000000 -0.000000
RightFoot -17.146682 -0.660900 -6.919544
RightToeBase -3.249379 -0.000000 0.000000
276
root -6.279755 33.077865 -0.405326 0.573364 -23.227268 15.734673
Spine 0.519056 5.500290 -0.537740
Head -16.843385 19.083219 -1.911332
LeftShoulder -2.386622 12.862354 17.153499
LeftArm 73.845442 38.640642 -49.353786
LeftForeArm 39.092811 0.000000 114.177156
LeftHand -34.787421 -0.000000 51.514487
LeftHandThumb1 -26.253704 0.000000 33.147579
RightShoulder -12.002816 14.050283 -25.058808
RightArm 16.147000 -35.169475 77.064651
RightForeArm -30.206276 -0.000000 128.438908
RightHand 3.001849 -0.000000 -45.874615
RightHandThumb1 -24.326973 -0.000000 -32.862282
LeftUpLeg -46.490094 12.087932 -13.001249
LeftLeg 82.604170 -0.000000 -0.000000
LeftFoot -1.066908 15.717489 -36.903346
LeftToeBase 4.094031 -0.000000 -0.000000
RightUpLeg -17.381631 -2.394770 -10.478296
RightLeg 28.153294 -0.000000 -0.000000
RightFoot -17.112894 -0.911711 -7.284434
RightToeBase -3.694752 -0.000000 0.000000
277
root -6.330478 33.053481 -0.368775 0.831772 -23.051081 15.231191
Spine 0.305918 5.466189 -0.290767
Head -16.671708 19.053137 -1.774287
LeftShoulder -2.375658 13.029232 17.159656
LeftArm 73.979607 38.607882 -49.270467
LeftForeArm 39.237858 -0.000000 113.981284
LeftHand -34.620791 -0.000000 51.570040
LeftHandThumb1 -26.253704 0.000000 33.147579
RightShoulder -12.082659 13.914231 -25.007000
RightArm 16.029637 -35.189785 77.131864
RightForeArm -30.195803 0.000000 128.419588
RightHand 2.877275 -0.000000 -45.376953
RightHandThumb1 -24.326973 -0.000000 -32.862282
LeftUpLeg -44.803076 12.203604 -12.602767
LeftLeg 80.672666 -0.000000 -0.000000
LeftFoot -2.671344 15.732710 -36.928906
LeftToeBase 3.394703 -0.000000 -0.000000
RightUpLeg -17.223870 -2.326495 -9.973637
RightLeg 28.028249 -0.000000 -0.000000
RightFoot -17.139989 -0.968384 -7.476181
RightToeBase -3.708719 -0.000000 0.000000
278
root -6.379056 33.031243 -0.326061 1.043364 -22.786905 14.749552
Spine 0.108098 5.467420 -0.040352
Head -16.432822 18.906725 -1.670754
LeftShoulder -2.151627 12.968910 17.221611
LeftArm 73.681390 38.675971 -49.510733
LeftForeArm 38.962921 -0.000000 114.038907
LeftHand -34.803896 0.000000 50.717101
LeftHandThumb1 -26.253704 0.000000 33.147579
RightShoulder -12.282052 13.746128 -25.028060
RightArm 15.951260 -35.282969 77.205848
RightForeArm -30.366187 -0.000000 128.309416
RightHand 2.582117 -0.000000 -45.349304
RightHandThumb1 -24.326973 -0.000000 -32.862282
LeftUpLeg -43.081272 12.250553 -12.206498
LeftLeg 78.656844 -0.000000 -0.000000
LeftFoot -4.054187 15.815648 -36.743170
LeftToeBase 3.049090 -0.000000 -0.000000
RightUpLeg -16.996100 -2.355944 -9.495116
RightLeg 27.888621 -0.000000 -0.000000
RightFoot -17.150924 -1.160139 -7.578231
RightToeBase -4.025847 -0.000000 0.000000
279
root -6.429277 33.010936 -0.280606 1.239255 -22.541372 14.302138
Spine -0.106386 5.324135 0.159104
Head -16.176058 18.899847 -1.554707
LeftShoulder -2.194133 13.251381 17.184594
LeftArm 73.784895 38.573995 -49.429581
LeftForeArm 38.809389 -0.000000 113.941420
LeftHand -34.661256 -0.000000 50.453426
LeftHandThumb1 -26.253704 0.000000 33.147579
RightShoulder -12.336876 13.532214 -24.985742
RightArm 16.003605 -35.378013 77.232247
RightForeArm -30.301012 -0.000000 128.186140
RightHand 2.480040 0.000000 -45.313924
RightHandThumb1 -24.326973 -0.000000 -32.862282
LeftUpLeg -41.350487 12.377959 -11.851197
LeftLeg 76.588581 -0.000000 -0.000000
LeftFoot -5.208928 15.898200 -35.795626
LeftToeBase 2.225415 -0.000000 -0.000000
RightUpLeg -16.783080 -2.384774 -9.057796
RightLeg 27.788938 -0.000000 -0.000000
RightFoot -17.205823 -1.277747 -7.602070
RightToeBase -4.034348 -0.000000 0.000000
